<?xml version="1.0" standalone="no"?>
<!DOCTYPE svg PUBLIC "-//W3C//DTD SVG 20010904//EN"
 "http://www.w3.org/TR/2001/REC-SVG-20010904/DTD/svg10.dtd">
<svg version="1.0" xmlns="http://www.w3.org/2000/svg"
 width="200.000000pt" height="200.000000pt" viewBox="0 0 200.000000 200.000000"
 preserveAspectRatio="xMidYMid meet">
<metadata>
Created by potrace 1.14, written by Peter Selinger 2001-2017
</metadata>
<g transform="translate(0.000000,200.000000) scale(0.100000,-0.100000)"
fill="#000000" stroke="none">
<path d="M917 1849 c-21 -5 -51 -16 -67 -24 -33 -17 -140 -120 -140 -134 0 -8
-102 -188 -130 -231 -6 -8 -13 -21 -17 -29 -3 -8 -36 -64 -71 -125 -56 -96
-95 -163 -194 -336 -11 -19 -50 -86 -86 -150 -36 -63 -74 -128 -85 -143 -50
-73 -64 -115 -66 -200 -2 -95 22 -159 84 -226 34 -37 110 -81 162 -96 31 -9
1340 -8 1386 0 20 4 40 11 43 16 3 5 24 19 46 30 144 73 196 267 115 429 -6
14 -15 27 -18 30 -4 3 -17 25 -29 50 -12 25 -25 47 -29 50 -3 3 -15 23 -27 45
-11 22 -45 81 -74 130 -29 50 -62 106 -72 125 -10 19 -28 51 -39 70 -20 32
-142 244 -213 369 -17 29 -41 70 -53 90 -11 20 -32 56 -45 80 -32 62 -83 112
-152 151 -48 27 -72 34 -125 36 -36 1 -83 -2 -104 -7z m115 -1021 c11 -16 16
-29 11 -29 -17 -3 -86 0 -89 4 -2 2 9 20 24 41 16 23 28 33 31 24 2 -7 13 -25
23 -40z"/>
</g>
</svg>
